<?xml version="1.0" encoding="UTF-8" standalone="no"?>
<svg xmlns="http://www.w3.org/2000/svg" width="512" height="512" viewBox="0 0 512 512">
  <defs>
    <linearGradient id="bottleGradient" x1="0%" y1="0%" x2="100%" y2="100%">
      <stop offset="0%" style="stop-color:#8B4513;stop-opacity:1" />
      <stop offset="100%" style="stop-color:#D2691E;stop-opacity:1" />
    </linearGradient>
    <filter id="shadow" x="-20%" y="-20%" width="140%" height="140%">
      <feGaussianBlur in="SourceAlpha" stdDeviation="10" />
      <feOffset dx="0" dy="5" result="offsetblur" />
      <feComponentTransfer>
        <feFuncA type="linear" slope="0.7" />
      </feComponentTransfer>
      <feMerge>
        <feMergeNode />
        <feMergeNode in="SourceGraphic" />
      </feMerge>
    </filter>
  </defs>
  
  <!-- Background circle -->
  <circle cx="256" cy="256" r="240" fill="#1a1a1a" />
  
  <!-- Bottle -->
  <g filter="url(#shadow)">
    <path d="M256 80 L230 120 L220 190 L220 370 C220 390 240 400 256 400 C272 400 292 390 292 370 L292 190 L282 120 Z" 
          fill="url(#bottleGradient)" />
    <!-- Bottle neck -->
    <rect x="245" y="70" width="22" height="50" rx="5" ry="5" fill="#8B4513" />
    <!-- Bottle cap -->
    <rect x="240" y="60" width="32" height="15" rx="3" ry="3" fill="#FFD700" />
  </g>
  
  <!-- Number 9 -->
  <text x="256" y="260" 
        font-family="Arial, sans-serif" 
        font-size="120" 
        font-weight="bold" 
        text-anchor="middle" 
        fill="#FFD700"
        filter="url(#shadow)">9</text>
  
  <!-- Circular text -->
  <g>
    <path id="curve" d="M 50,256 A 206,206 0 1,1 462,256 A 206,206 0 1,1 50,256" fill="none" />
    <text font-family="Arial, sans-serif" font-size="28" font-weight="bold" fill="#FFD700" filter="url(#shadow)">
      <textPath href="#curve" startOffset="3%">BOTTLE ★ 9JA ★ BET ★ SPIN ★ WIN</textPath>
    </text>
  </g>
</svg>